####
#
# OBJ File Generated by Meshlab
#
####
# Object sugar_box.obj
#
# Vertices: 102
# Faces: 200
#
####
vn -0.080760 0.006097 -0.996715
v -0.020943 -0.058530 0.000499
vn -0.639443 -0.340280 -0.689436
v -0.025021 -0.062010 0.000766
vn -0.990429 -0.022401 -0.136195
v -0.027006 -0.045137 0.007602
vn -0.997823 -0.054752 -0.036771
v -0.027716 -0.040022 0.020017
vn -0.694748 -0.719172 -0.010806
v -0.025276 -0.062099 0.019925
vn -0.010854 -0.809569 -0.586924
v -0.008668 -0.063415 0.001085
vn 0.008819 -0.017703 -0.999804
v -0.016611 -0.043003 0.000200
vn -0.999515 -0.018296 -0.025207
v -0.029468 -0.031409 0.063424
vn -0.998877 0.044646 -0.015879
v -0.029436 -0.021860 0.067485
vn 0.867624 -0.392956 -0.304654
v 0.012679 -0.063440 0.002054
vn 0.641188 -0.766506 0.036704
v 0.011450 -0.063080 0.030825
vn 0.993047 -0.112954 0.033163
v 0.015209 -0.038739 0.043284
vn 0.987955 -0.147198 0.047723
v 0.012563 -0.046112 0.078140
vn 0.562169 -0.825954 0.042027
v 0.009189 -0.062240 0.080954
vn -0.029037 -0.999435 0.016921
v -0.007736 -0.062818 0.062598
vn 0.234161 -0.971796 0.027959
v 0.006176 -0.061813 0.104516
vn 0.880709 -0.470204 0.057102
v 0.008462 -0.060508 0.115027
vn -0.650645 0.010539 -0.759309
v -0.025007 -0.028438 0.000953
vn -0.076051 0.011013 -0.997043
v -0.020070 -0.005507 0.000561
vn 0.016934 0.006541 -0.999835
v -0.002806 -0.008075 0.000041
vn -0.983281 0.098674 -0.153046
v -0.025758 0.006012 0.006424
vn -0.775311 0.074897 -0.627123
v -0.024533 0.000880 0.001182
vn 0.448723 -0.037422 -0.892887
v 0.014229 -0.024229 0.000733
vn 0.996861 -0.060960 -0.050525
v 0.015823 -0.034568 0.017397
vn 0.817974 -0.021324 -0.574860
v 0.016999 0.017347 0.001256
vn -0.960883 0.214338 -0.175393
v -0.023203 0.017886 0.005087
vn -0.368292 0.408768 -0.835027
v -0.020051 0.026939 0.001374
vn 0.999684 0.023234 0.009577
v 0.017476 0.005547 0.016603
vn 0.571432 0.475525 -0.668837
v 0.016692 0.025572 0.001051
vn -0.998387 0.035845 -0.044037
v -0.027972 -0.013903 0.026792
vn -0.987282 0.155740 -0.031926
v -0.026161 0.007067 0.025384
vn -0.099802 0.921559 -0.375190
v -0.015255 0.028855 0.002393
vn -0.549882 0.835165 -0.011348
v -0.021581 0.026871 0.025953
vn 0.701838 0.711272 0.038927
v 0.014996 0.026054 0.036119
vn 0.996601 0.069762 0.043824
v 0.016086 0.010506 0.045098
vn 0.054804 0.958018 -0.281422
v -0.002894 0.028376 0.003561
vn -0.993151 0.113394 -0.028146
v -0.027053 0.013355 0.082730
vn -0.774274 0.631354 -0.043498
v -0.023689 0.026261 0.055422
vn -0.186060 0.982095 -0.029501
v -0.021302 0.028154 0.069176
vn 0.011083 0.999852 0.013154
v -0.010501 0.027213 0.034054
vn -0.130200 0.991171 -0.025075
v -0.020992 0.027347 0.049405
vn 0.999249 -0.021888 0.031983
v 0.016670 -0.015311 0.044112
vn 0.996979 -0.051020 0.058567
v 0.014891 -0.021811 0.077207
vn 0.998058 0.022853 0.057951
v 0.014910 -0.000465 0.079105
vn 0.547031 0.837016 0.012698
v 0.014166 0.026136 0.049802
vn -0.879441 -0.475446 -0.023102
v -0.028320 -0.060915 0.085891
vn -0.999574 0.028204 0.007507
v -0.029615 -0.022270 0.111389
vn -0.999113 0.041289 -0.008307
v -0.029452 -0.016830 0.097479
vn -0.999922 -0.006405 -0.010687
v -0.029741 -0.043917 0.110416
vn -0.999605 0.026783 0.008539
v -0.029645 -0.030445 0.124130
vn -0.998782 0.045416 -0.019278
v -0.028268 -0.006517 0.144023
vn -0.995870 0.043312 -0.079788
v -0.029457 -0.013421 0.157286
vn -0.021032 -0.999647 0.016211
v -0.004312 -0.061613 0.112355
vn -0.027266 -0.999628 -0.000218
v -0.008990 -0.061251 0.139575
vn -0.725784 -0.687915 -0.003285
v -0.029781 -0.060390 0.119612
vn 0.069420 -0.997467 0.015526
v 0.004036 -0.061329 0.141532
vn 0.994143 -0.079844 0.072830
v 0.011299 -0.039170 0.113830
vn 0.995804 -0.024735 0.088103
v 0.011884 -0.014433 0.120135
vn 0.995246 -0.029093 0.092942
v 0.010270 -0.024965 0.131374
vn -0.540743 -0.841033 -0.016148
v -0.030139 -0.060363 0.140684
vn -0.050729 -0.998421 0.024129
v -0.023617 -0.060919 0.148632
vn 0.873635 -0.484410 0.045918
v 0.007239 -0.059927 0.139433
vn 0.434594 -0.900234 0.026592
v 0.006327 -0.060918 0.140682
vn 0.988613 -0.100133 0.112326
v 0.006449 -0.054304 0.170804
vn 0.045478 -0.997842 0.047352
v 0.001556 -0.061171 0.167342
vn 0.683481 -0.648381 0.335345
v 0.004985 -0.060397 0.173148
vn 0.995030 -0.078870 0.060791
v 0.008110 -0.048978 0.145494
vn -0.106528 -0.987129 0.119281
v -0.029168 -0.060015 0.170471
vn -0.782261 -0.443978 0.436980
v -0.032115 -0.058961 0.174001
vn -0.059372 -0.495977 0.866304
v -0.021923 -0.059183 0.174969
vn -0.026411 -0.020865 0.999433
v -0.013762 -0.044032 0.175376
vn -0.998654 0.031273 -0.041377
v -0.029863 -0.039696 0.147923
vn -0.359671 0.006341 0.933058
v -0.029422 -0.043257 0.175043
vn 0.034127 -0.674951 0.737073
v -0.002057 -0.060138 0.175457
vn 0.998216 -0.031024 0.051009
v 0.007845 -0.033870 0.161987
vn 0.741491 -0.028686 0.670349
v 0.007799 -0.022141 0.175491
vn -0.989998 0.041861 0.134728
v -0.030911 -0.022383 0.170544
vn -0.864564 0.026772 0.501809
v -0.029935 -0.001124 0.172955
vn 0.003358 -0.009010 0.999954
v -0.000965 -0.032339 0.176073
vn -0.997728 0.039415 -0.054645
v -0.029785 0.004341 0.168342
vn -0.165646 0.024419 0.985883
v -0.025678 -0.003784 0.174913
vn -0.997462 0.071175 -0.001958
v -0.027836 0.012743 0.111950
vn -0.829734 0.556647 -0.041048
v -0.025885 0.026561 0.102221
vn 0.592955 0.805231 0.002702
v 0.013511 0.027144 0.069839
vn 0.016067 0.999824 -0.009695
v -0.013642 0.028576 0.108976
vn -0.380604 0.924458 -0.022751
v -0.023918 0.028124 0.098557
vn -0.136453 0.990092 -0.033153
v -0.023161 0.028902 0.128979
vn -0.759997 0.647369 -0.057604
v -0.026738 0.030227 0.150412
vn -0.646211 0.527631 0.551378
v -0.029157 0.028686 0.173291
vn 0.995913 -0.000960 0.090309
v 0.011411 0.005895 0.127563
vn 0.885034 0.462244 0.055174
v 0.011229 0.027546 0.123666
vn 0.496261 0.868123 0.009311
v 0.010171 0.027716 0.136823
vn 0.996614 -0.001609 0.082211
v 0.010206 0.014738 0.140394
vn 0.029299 0.353825 0.934853
v 0.002641 0.027599 0.175404
vn 0.094229 0.995550 0.000790
v 0.002577 0.028746 0.162394
vn 0.026880 0.994288 0.103289
v -0.014122 0.030004 0.169151
vn 0.542578 0.685404 0.485623
v 0.008916 0.027921 0.174468
vn 0.999576 -0.014659 0.025167
v 0.008124 -0.005074 0.159138
vn 0.999742 -0.022730 -0.000150
v 0.008407 0.022220 0.167755
vn 0.120455 0.008372 0.992683
v -0.000384 0.002058 0.175722
vn 0.918521 -0.007668 0.395297
v 0.008949 0.008643 0.171752
vn -0.028504 0.588943 0.807672
v -0.009514 0.028408 0.174274
# 102 vertices, 0 vertices normals

f 2//2 1//1 7//7
f 2//2 7//7 6//6
f 18//18 2//2 3//3
f 19//19 1//1 2//2
f 19//19 7//7 1//1
f 6//6 5//5 2//2
f 11//11 6//6 10//10
f 3//3 2//2 5//5
f 4//4 3//3 5//5
f 6//6 15//15 5//5
f 46//46 5//5 15//15
f 46//46 4//4 5//5
f 4//4 8//8 30//30
f 4//4 46//46 8//8
f 49//49 48//48 9//9
f 9//9 8//8 49//49
f 10//10 24//24 12//12
f 15//15 6//6 11//11
f 11//11 10//10 12//12
f 15//15 11//11 14//14
f 13//13 14//14 11//11
f 13//13 11//11 12//12
f 43//43 13//13 12//12
f 14//14 16//16 15//15
f 15//15 55//55 46//46
f 53//53 15//15 16//16
f 17//17 16//16 14//14
f 57//57 13//13 43//43
f 18//18 19//19 2//2
f 19//19 20//20 7//7
f 22//22 18//18 3//3
f 30//30 3//3 4//4
f 21//21 3//3 30//30
f 21//21 22//22 3//3
f 7//7 23//23 6//6
f 23//23 7//7 20//20
f 23//23 10//10 6//6
f 24//24 10//10 23//23
f 25//25 24//24 23//23
f 26//26 22//22 21//21
f 18//18 22//22 19//19
f 20//20 19//19 27//27
f 27//27 22//22 26//26
f 27//27 19//19 22//22
f 36//36 27//27 32//32
f 20//20 25//25 23//23
f 28//28 24//24 25//25
f 29//29 25//25 20//20
f 29//29 20//20 27//27
f 28//28 25//25 29//29
f 28//28 29//29 34//34
f 36//36 29//29 27//27
f 29//29 36//36 34//34
f 31//31 21//21 30//30
f 31//31 30//30 9//9
f 31//31 26//26 21//21
f 27//27 26//26 33//33
f 31//31 33//33 26//26
f 32//32 27//27 33//33
f 36//36 32//32 33//33
f 40//40 36//36 33//33
f 31//31 38//38 33//33
f 41//41 40//40 33//33
f 28//28 34//34 35//35
f 35//35 34//34 45//45
f 37//37 31//31 9//9
f 9//9 30//30 8//8
f 37//37 38//38 31//31
f 38//38 41//41 33//33
f 83//83 38//38 37//37
f 39//39 41//41 38//38
f 40//40 34//34 36//36
f 34//34 40//40 45//45
f 41//41 45//45 40//40
f 41//41 84//84 45//45
f 39//39 84//84 41//41
f 24//24 28//28 42//42
f 12//12 24//24 42//42
f 43//43 12//12 42//42
f 42//42 28//28 35//35
f 35//35 44//44 42//42
f 43//43 42//42 44//44
f 58//58 57//57 43//43
f 84//84 35//35 45//45
f 35//35 84//84 44//44
f 49//49 46//46 55//55
f 46//46 49//49 8//8
f 50//50 47//47 49//49
f 55//55 50//50 49//49
f 47//47 48//48 49//49
f 55//55 72//72 50//50
f 47//47 50//50 82//82
f 80//80 78//78 89//89
f 15//15 53//53 55//55
f 55//55 53//53 54//54
f 60//60 55//55 54//54
f 54//54 53//53 56//56
f 17//17 14//14 13//13
f 17//17 13//13 57//57
f 17//17 62//62 16//16
f 53//53 16//16 56//56
f 56//56 16//16 63//63
f 63//63 16//16 62//62
f 62//62 17//17 67//67
f 67//67 17//17 57//57
f 59//59 57//57 58//58
f 67//67 57//57 59//59
f 60//60 72//72 55//55
f 60//60 54//54 61//61
f 68//68 60//60 61//61
f 72//72 60//60 69//69
f 52//52 51//51 72//72
f 65//65 63//63 66//66
f 64//64 62//62 67//67
f 63//63 62//62 66//66
f 65//65 54//54 56//56
f 65//65 56//56 63//63
f 61//61 54//54 65//65
f 66//66 74//74 65//65
f 64//64 66//66 62//62
f 64//64 67//67 75//75
f 58//58 90//90 59//59
f 50//50 72//72 51//51
f 59//59 75//75 67//67
f 75//75 59//59 98//98
f 68//68 69//69 60//60
f 69//69 68//68 70//70
f 73//73 69//69 70//70
f 74//74 70//70 68//68
f 73//73 70//70 71//71
f 69//69 77//77 72//72
f 77//77 52//52 72//72
f 77//77 69//69 73//73
f 77//77 73//73 78//78
f 79//79 73//73 71//71
f 74//74 68//68 61//61
f 74//74 71//71 70//70
f 61//61 65//65 74//74
f 79//79 71//71 74//74
f 66//66 64//64 76//76
f 76//76 64//64 75//75
f 74//74 66//66 76//76
f 76//76 79//79 74//74
f 73//73 81//81 78//78
f 52//52 77//77 80//80
f 77//77 78//78 80//80
f 81//81 73//73 79//79
f 81//81 79//79 100//100
f 89//89 78//78 81//81
f 81//81 100//100 102//102
f 79//79 76//76 100//100
f 75//75 98//98 76//76
f 76//76 98//98 101//101
f 101//101 100//100 76//76
f 37//37 9//9 48//48
f 82//82 37//37 48//48
f 47//47 82//82 48//48
f 86//86 39//39 38//38
f 83//83 86//86 38//38
f 85//85 39//39 86//86
f 84//84 39//39 85//85
f 82//82 83//83 37//37
f 83//83 87//87 86//86
f 50//50 51//51 82//82
f 87//87 85//85 86//86
f 87//87 92//92 85//85
f 88//88 82//82 51//51
f 88//88 83//83 82//82
f 83//83 88//88 87//87
f 88//88 92//92 87//87
f 88//88 51//51 52//52
f 80//80 88//88 52//52
f 80//80 89//89 88//88
f 89//89 96//96 88//88
f 89//89 102//102 96//96
f 58//58 43//43 44//44
f 90//90 58//58 44//44
f 91//91 84//84 85//85
f 84//84 91//91 44//44
f 93//93 59//59 90//90
f 44//44 91//91 90//90
f 91//91 93//93 90//90
f 59//59 93//93 98//98
f 85//85 92//92 91//91
f 93//93 91//91 92//92
f 99//99 98//98 93//93
f 92//92 88//88 96//96
f 95//95 92//92 96//96
f 94//94 102//102 100//100
f 99//99 92//92 97//97
f 97//97 92//92 95//95
f 97//97 95//95 96//96
f 102//102 97//97 96//96
f 102//102 94//94 97//97
f 101//101 98//98 99//99
f 100//100 97//97 94//94
f 97//97 101//101 99//99
f 97//97 100//100 101//101
f 92//92 99//99 93//93
f 81//81 102//102 89//89
# 200 faces, 0 coords texture

# End of File
